<svg width="18" height="23" viewBox="0 0 18 23" fill="none" xmlns="http://www.w3.org/2000/svg">
<path d="M8.99973 11.08C10.0954 11.08 11.1665 10.7551 12.0776 10.1464C12.9886 9.53763 13.6987 8.67239 14.118 7.66009C14.5373 6.64778 14.6471 5.53387 14.4333 4.45921C14.2195 3.38456 13.6919 2.39742 12.9171 1.62264C12.1423 0.84785 11.1552 0.320215 10.0805 0.106452C9.00588 -0.10731 7.89196 0.00240041 6.87966 0.421711C5.86735 0.841022 5.00212 1.5511 4.39338 2.46215C3.78463 3.3732 3.45972 4.44431 3.45972 5.54002C3.46118 7.00887 4.04533 8.41714 5.08397 9.45578C6.12261 10.4944 7.53088 11.0786 8.99973 11.08ZM8.99973 1.84667C9.73021 1.84667 10.4443 2.06328 11.0516 2.46911C11.659 2.87494 12.1324 3.45177 12.4119 4.12664C12.6915 4.80151 12.7646 5.54411 12.6221 6.26055C12.4796 6.97699 12.1278 7.63508 11.6113 8.1516C11.0948 8.66813 10.4367 9.01989 9.72027 9.16239C9.00383 9.3049 8.26122 9.23176 7.58635 8.95222C6.91148 8.67268 6.33466 8.1993 5.92883 7.59193C5.523 6.98456 5.30639 6.27049 5.30639 5.54002C5.30639 4.56048 5.69551 3.62107 6.38814 2.92843C7.08078 2.23579 8.0202 1.84667 8.99973 1.84667Z" fill="#B39C8B"/>
<path d="M8.99996 12.9268C6.79676 12.9292 4.68449 13.8055 3.12659 15.3634C1.56869 16.9213 0.692385 19.0336 0.689941 21.2368C0.689941 21.4817 0.787221 21.7165 0.96038 21.8897C1.13354 22.0628 1.36839 22.1601 1.61328 22.1601C1.85816 22.1601 2.09301 22.0628 2.26617 21.8897C2.43933 21.7165 2.53661 21.4817 2.53661 21.2368C2.53661 19.5226 3.21757 17.8786 4.42968 16.6665C5.6418 15.4544 7.28578 14.7734 8.99996 14.7734C10.7142 14.7734 12.3581 15.4544 13.5702 16.6665C14.7824 17.8786 15.4633 19.5226 15.4633 21.2368C15.4633 21.4817 15.5606 21.7165 15.7338 21.8897C15.9069 22.0628 16.1418 22.1601 16.3866 22.1601C16.6315 22.1601 16.8664 22.0628 17.0395 21.8897C17.2127 21.7165 17.31 21.4817 17.31 21.2368C17.3075 19.0336 16.4312 16.9213 14.8733 15.3634C13.3154 13.8055 11.2032 12.9292 8.99996 12.9268Z" fill="#B39C8B"/>
</svg>
