<svg width="186" height="32" viewBox="0 0 186 32" fill="none" xmlns="http://www.w3.org/2000/svg">
<path d="M0.528409 31V1.90909H12.0057C14.2121 1.90909 16.0919 2.33049 17.6449 3.1733C19.1979 4.00663 20.3816 5.16667 21.196 6.65341C22.0199 8.13068 22.4318 9.83523 22.4318 11.767C22.4318 13.6989 22.0152 15.4034 21.1818 16.8807C20.3485 18.358 19.1411 19.5085 17.5597 20.3324C15.9877 21.1562 14.0843 21.5682 11.8494 21.5682H4.53409V16.6392H10.8551C12.0388 16.6392 13.0142 16.4356 13.7812 16.0284C14.5578 15.6117 15.1354 15.0388 15.5142 14.3097C15.9025 13.571 16.0966 12.7235 16.0966 11.767C16.0966 10.8011 15.9025 9.95833 15.5142 9.23864C15.1354 8.50947 14.5578 7.94602 13.7812 7.5483C13.0047 7.1411 12.0199 6.9375 10.8267 6.9375H6.67898V31H0.528409ZM31.9489 31.4119C30.5568 31.4119 29.3163 31.1705 28.2273 30.6875C27.1383 30.1951 26.2765 29.4706 25.642 28.5142C25.017 27.5483 24.7045 26.3456 24.7045 24.9062C24.7045 23.6941 24.9271 22.6761 25.3722 21.8523C25.8172 21.0284 26.4233 20.3655 27.1903 19.8636C27.9574 19.3617 28.8286 18.983 29.804 18.7273C30.7888 18.4716 31.821 18.2917 32.9006 18.1875C34.1695 18.0549 35.1922 17.9318 35.9688 17.8182C36.7453 17.6951 37.3087 17.5152 37.6591 17.2784C38.0095 17.0417 38.1847 16.6913 38.1847 16.2273V16.142C38.1847 15.2424 37.9006 14.5464 37.3324 14.054C36.7737 13.5616 35.9782 13.3153 34.946 13.3153C33.857 13.3153 32.9905 13.5568 32.3466 14.0398C31.7027 14.5133 31.2765 15.1098 31.0682 15.8295L25.4716 15.375C25.7557 14.0492 26.3144 12.9034 27.1477 11.9375C27.9811 10.9621 29.0559 10.214 30.3722 9.69318C31.6979 9.16288 33.232 8.89773 34.9744 8.89773C36.1866 8.89773 37.3466 9.03977 38.4545 9.32386C39.572 9.60795 40.5616 10.0483 41.4233 10.6449C42.2945 11.2415 42.9811 12.0085 43.483 12.946C43.9848 13.8741 44.2358 14.9867 44.2358 16.2841V31H38.4972V27.9744H38.3267C37.9763 28.6562 37.5076 29.2576 36.9205 29.7784C36.3333 30.2898 35.6278 30.6922 34.804 30.9858C33.9801 31.2699 33.0284 31.4119 31.9489 31.4119ZM33.6818 27.2358C34.572 27.2358 35.358 27.0606 36.0398 26.7102C36.7216 26.3504 37.2566 25.8674 37.6449 25.2614C38.0331 24.6553 38.2273 23.9687 38.2273 23.2017V20.8864C38.0379 21.0095 37.7775 21.1231 37.446 21.2273C37.1241 21.322 36.7595 21.4119 36.3523 21.4972C35.9451 21.5729 35.5379 21.6439 35.1307 21.7102C34.7235 21.767 34.3542 21.8191 34.0227 21.8665C33.3125 21.9706 32.6922 22.1364 32.1619 22.3636C31.6316 22.5909 31.2197 22.8987 30.9261 23.2869C30.6326 23.6657 30.4858 24.1392 30.4858 24.7074C30.4858 25.5312 30.7841 26.161 31.3807 26.5966C31.9867 27.0227 32.7538 27.2358 33.6818 27.2358ZM53.2344 31L47.2969 9.18182H53.419L56.7997 23.8409H56.9986L60.5213 9.18182H66.5298L70.1094 23.7557H70.294L73.6179 9.18182H79.7259L73.8026 31H67.3963L63.6463 17.2784H63.3764L59.6264 31H53.2344ZM101.107 15.4034L95.5675 15.7443C95.4728 15.2708 95.2692 14.8447 94.9567 14.4659C94.6442 14.0777 94.2322 13.7699 93.7209 13.5426C93.219 13.3059 92.6177 13.1875 91.9169 13.1875C90.9794 13.1875 90.1887 13.3864 89.5447 13.7841C88.9008 14.1723 88.5788 14.6932 88.5788 15.3466C88.5788 15.8674 88.7872 16.3078 89.2038 16.6676C89.6205 17.0275 90.3355 17.3163 91.3487 17.5341L95.2976 18.3295C97.4188 18.7652 99.0002 19.4659 100.042 20.4318C101.084 21.3977 101.604 22.6667 101.604 24.2386C101.604 25.6686 101.183 26.9233 100.34 28.0028C99.5069 29.0824 98.361 29.9252 96.9027 30.5312C95.4538 31.1278 93.7824 31.4261 91.8885 31.4261C89.0002 31.4261 86.6991 30.8248 84.9851 29.6222C83.2805 28.41 82.2815 26.7623 81.9879 24.679L87.9396 24.3665C88.1196 25.2472 88.5552 25.9195 89.2464 26.3835C89.9377 26.8381 90.8232 27.0653 91.9027 27.0653C92.9633 27.0653 93.8156 26.8617 94.4595 26.4545C95.1129 26.0379 95.4444 25.5028 95.4538 24.8494C95.4444 24.3002 95.2124 23.8504 94.7578 23.5C94.3033 23.1402 93.6025 22.8655 92.6555 22.6761L88.8771 21.9233C86.7464 21.4972 85.1603 20.7585 84.1186 19.7074C83.0864 18.6562 82.5703 17.3163 82.5703 15.6875C82.5703 14.286 82.9491 13.0786 83.7067 12.0653C84.4737 11.0521 85.5485 10.2708 86.9311 9.72159C88.3232 9.17235 89.9519 8.89773 91.8175 8.89773C94.5732 8.89773 96.7417 9.48011 98.3232 10.6449C99.9141 11.8097 100.842 13.3958 101.107 15.4034ZM105.415 31V9.18182H111.466V31H105.415ZM108.455 6.36932C107.555 6.36932 106.783 6.07102 106.139 5.47443C105.505 4.86837 105.188 4.14394 105.188 3.30114C105.188 2.4678 105.505 1.75284 106.139 1.15625C106.783 0.550188 107.555 0.247158 108.455 0.247158C109.354 0.247158 110.121 0.550188 110.756 1.15625C111.4 1.75284 111.722 2.4678 111.722 3.30114C111.722 4.14394 111.4 4.86837 110.756 5.47443C110.121 6.07102 109.354 6.36932 108.455 6.36932ZM127.918 9.18182V13.7273H114.779V9.18182H127.918ZM117.762 3.95455H123.813V24.2955C123.813 24.8542 123.898 25.2898 124.069 25.6023C124.239 25.9053 124.476 26.1184 124.779 26.2415C125.092 26.3646 125.451 26.4261 125.859 26.4261C126.143 26.4261 126.427 26.4025 126.711 26.3551C126.995 26.2983 127.213 26.2557 127.364 26.2273L128.316 30.7301C128.013 30.8248 127.587 30.9337 127.038 31.0568C126.488 31.1894 125.821 31.2699 125.035 31.2983C123.576 31.3551 122.298 31.161 121.2 30.7159C120.111 30.2708 119.263 29.5795 118.657 28.642C118.051 27.7045 117.753 26.5208 117.762 25.0909V3.95455ZM131.86 31V9.18182H137.911V31H131.86ZM134.9 6.36932C134 6.36932 133.228 6.07102 132.585 5.47443C131.95 4.86837 131.633 4.14394 131.633 3.30114C131.633 2.4678 131.95 1.75284 132.585 1.15625C133.228 0.550188 134 0.247158 134.9 0.247158C135.799 0.247158 136.567 0.550188 137.201 1.15625C137.845 1.75284 138.167 2.4678 138.167 3.30114C138.167 4.14394 137.845 4.86837 137.201 5.47443C136.567 6.07102 135.799 6.36932 134.9 6.36932ZM163.099 9.18182L155.472 31H148.653L141.026 9.18182H147.418L151.949 24.7926H152.176L156.693 9.18182H163.099ZM175.436 31.4261C173.192 31.4261 171.26 30.9716 169.641 30.0625C168.031 29.1439 166.79 27.8466 165.919 26.1705C165.048 24.4848 164.612 22.4915 164.612 20.1903C164.612 17.946 165.048 15.9763 165.919 14.2812C166.79 12.5862 168.017 11.2652 169.598 10.3182C171.189 9.37121 173.054 8.89773 175.195 8.89773C176.634 8.89773 177.974 9.12973 179.214 9.59375C180.464 10.0483 181.554 10.7348 182.482 11.6534C183.419 12.572 184.148 13.7273 184.669 15.1193C185.19 16.5019 185.45 18.1212 185.45 19.9773V21.6392H167.027V17.8892H179.754C179.754 17.018 179.565 16.2462 179.186 15.5739C178.807 14.9015 178.282 14.3759 177.609 13.9972C176.946 13.6089 176.175 13.4148 175.294 13.4148C174.375 13.4148 173.561 13.6278 172.851 14.054C172.15 14.4706 171.601 15.0341 171.203 15.7443C170.805 16.4451 170.602 17.2263 170.592 18.0881V21.6534C170.592 22.733 170.791 23.6657 171.189 24.4517C171.596 25.2377 172.169 25.8438 172.908 26.2699C173.646 26.696 174.522 26.9091 175.536 26.9091C176.208 26.9091 176.823 26.8144 177.382 26.625C177.941 26.4356 178.419 26.1515 178.817 25.7727C179.214 25.3939 179.518 24.9299 179.726 24.3807L185.322 24.75C185.038 26.0947 184.456 27.2689 183.575 28.2727C182.704 29.267 181.577 30.0436 180.195 30.6023C178.821 31.1515 177.235 31.4261 175.436 31.4261Z" fill="#807562"/>
</svg>
