<svg width="25" height="23" viewBox="0 0 25 23" fill="none" xmlns="http://www.w3.org/2000/svg">
<path d="M19.2041 5.87744L16.3346 1.73232C16.1219 1.42575 15.8392 1.17426 15.5099 0.998721C15.1807 0.823177 14.8143 0.728625 14.4413 0.7229L8.99561 0.644775H8.98438C6.1729 0.644775 4.01577 1.11504 2.62646 3.41011C1.33301 5.54644 0.78125 9.18555 0.78125 15.5781V16.3594H2.56626L1.41719 22.2188H3.00947L4.15855 16.3594H4.6875C5.96346 16.3708 7.19271 15.8798 8.10977 14.9926C8.93882 14.1993 9.53682 13.1141 9.83921 11.8542L9.84194 11.8429L11.1819 5.42188H9.58574L8.31724 11.5004C7.93091 13.0961 6.77568 14.7969 4.6875 14.7969H2.34668C2.38911 9.26631 2.89268 5.98735 3.96313 4.21904C4.86157 2.73467 6.17481 2.20776 8.97896 2.20703L14.4188 2.28516C14.5432 2.28706 14.6653 2.31858 14.775 2.3771C14.8848 2.43561 14.979 2.51944 15.0499 2.62163L18.2959 7.31006L22.6562 8.03682V8.86489L21.9291 12.7429C21.7145 13.8875 21.3477 14.464 19.8433 14.6447L13.676 15.6999L13.6352 22.2188H15.1977L15.2303 17.0189L20.0496 16.1937C21.1414 16.0595 21.9469 15.7076 22.5118 15.1184C22.9947 14.6146 23.2886 13.9709 23.4649 13.0309L24.2188 9.01011V6.71318L19.2041 5.87744Z" fill="#B39C8B"/>
</svg>
