<svg width="16" height="16" viewBox="0 0 16 16" fill="none" xmlns="http://www.w3.org/2000/svg">
<mask id="mask0_30_1505" style="mask-type:luminance" maskUnits="userSpaceOnUse" x="0" y="0" width="16" height="16">
<path d="M1.25 6.5C1.25 5.0855 1.25 4.379 1.6895 3.9395C2.129 3.5 2.8355 3.5 4.25 3.5H11.75C13.1645 3.5 13.871 3.5 14.3105 3.9395C14.75 4.379 14.75 5.0855 14.75 6.5V7.25H1.25V6.5Z" stroke="#C0C0C0" stroke-opacity="0.25" stroke-width="1.5"/>
<path d="M13.25 3.5H2.75C1.92157 3.5 1.25 4.17157 1.25 5V13.25C1.25 14.0784 1.92157 14.75 2.75 14.75H13.25C14.0784 14.75 14.75 14.0784 14.75 13.25V5C14.75 4.17157 14.0784 3.5 13.25 3.5Z" stroke="white" stroke-width="1.5"/>
<path d="M4.25 1.25V5M11.75 1.25V5" stroke="white" stroke-width="1.5" stroke-linecap="round"/>
</mask>
<g mask="url(#mask0_30_1505)">
<path d="M-1 -1H17V17H-1V-1Z" fill="#575754"/>
</g>
</svg>
