<svg width="14" height="16" viewBox="0 0 14 16" fill="none" xmlns="http://www.w3.org/2000/svg">
<path d="M7.42008 14.615C7.29768 14.7029 7.15078 14.7502 7.00008 14.7502C6.84938 14.7502 6.70248 14.7029 6.58008 14.615C2.95833 12.0335 -0.885421 6.7235 3.00033 2.8865C4.06709 1.83714 5.50371 1.24934 7.00008 1.25C8.50008 1.25 9.93933 1.83875 10.9998 2.88575C14.8856 6.72275 11.0418 12.032 7.42008 14.615Z" stroke="#575754" stroke-width="1.5" stroke-linecap="round" stroke-linejoin="round"/>
<path d="M6.0625 8C5.86359 8 5.67282 7.92098 5.53217 7.78033C5.39152 7.63968 5.3125 7.44891 5.3125 7.25V5.48L7 4.25L8.6875 5.48V7.25C8.6875 7.44891 8.60848 7.63968 8.46783 7.78033C8.32718 7.92098 8.13641 8 7.9375 8H6.0625Z" stroke="#575754" stroke-width="1.5" stroke-linecap="round" stroke-linejoin="round"/>
</svg>
