<svg width="22" height="21" viewBox="0 0 22 21" fill="none" xmlns="http://www.w3.org/2000/svg">
<path fill-rule="evenodd" clip-rule="evenodd" d="M21.1148 18.862L15.3653 13.11C16.3959 11.7043 16.948 10.0048 16.9403 8.26174C16.9206 3.7118 13.2407 0.0263629 8.69097 8.35808e-05C6.51367 -0.00976784 4.42286 0.85161 2.88432 2.39233C1.34578 3.93304 0.487302 6.02511 0.500142 8.20248C0.519807 12.7528 4.20008 16.4386 8.75022 16.4649C10.5003 16.4725 12.2059 15.9139 13.6125 14.8726L13.6185 14.8681L19.3628 20.6156C19.6734 20.9414 20.1362 21.0733 20.5718 20.9602C21.0075 20.847 21.3476 20.5066 21.4604 20.0708C21.5732 19.635 21.4409 19.1723 21.1148 18.862ZM8.74445 14.8178C5.10454 14.7969 2.16037 11.8486 2.14439 8.20851C2.13457 6.46684 2.8214 4.79352 4.052 3.56103C5.28261 2.32855 6.95484 1.6392 8.69645 1.64644C12.3364 1.66738 15.2805 4.61568 15.2965 8.25576C15.3063 9.99743 14.6195 11.6708 13.3889 12.9032C12.1583 14.1357 10.4861 14.8251 8.74445 14.8178Z" fill="#B39C8B"/>
</svg>
