<svg width="68" height="84" viewBox="0 0 68 84" fill="none" xmlns="http://www.w3.org/2000/svg">
<path d="M53.1021 42.9997C53.2687 41.833 54.7246 37.5507 58.6021 35.9998C63.6021 33.9998 65.6021 38.4997 63.6021 41.4997C62.8421 42.6397 61.4626 43.1339 60.6084 43.3697C61.1931 43.2549 62.0079 43.2026 62.6021 43.4997C63.6021 43.9997 63.6021 46.4997 61.1021 46.9997C60.7687 47.1664 59.8021 47.3997 58.6021 46.9997C59.6021 47.3331 61.6021 47.9997 61.1021 49.4997C60.7485 50.5604 59.6021 50.4997 58.1021 49.9997C58.6021 50.3331 59.0021 50.6997 58.6021 51.4997C58.1021 52.4997 54.1021 52.9997 51.6021 50.9997C52.8021 48.5997 53.2687 44.6664 53.1021 42.9997Z" fill="#E7D4B5" stroke="#63553E" stroke-width="2" stroke-linejoin="round"/>
<path d="M48.004 4.38642C45.399 7.63593 45.7936 11.7708 46.9298 14.7517C47.4884 16.2174 49.3072 15.9225 50.0681 14.5509C51.7795 11.4655 54.0955 10.0874 56.7218 8.44825C61.0891 5.72252 54.3773 -3.56389 48.004 4.38642Z" fill="#E7D4B5" stroke="#63553E" stroke-width="2"/>
<path d="M62.462 17.1789C58.1132 14.6867 53.1962 16.0574 49.959 17.9828C48.5998 18.7912 49.1689 20.5736 50.6693 21.0733C54.8066 22.451 56.8353 24.9107 59.2439 27.7009C63.0935 32.1606 72.6377 23.0102 62.462 17.1789Z" fill="#E7D4B5" stroke="#63553E" stroke-width="2"/>
<path d="M35.6017 15.5C42.0017 15.5 45.2683 18.1667 46.1017 19.5C46.935 20.8333 47.6016 23 47.1016 25C45.9766 29.5 46.6016 30.5 49.1016 34C51.6016 37.5 53.1016 41 53.1016 46C53.1016 48.906 51.6941 51.4601 50.413 53.0872C49.7466 53.9336 49.6382 55.166 50.4008 55.9269C54.1729 59.6902 59.6049 62.5174 60.1021 65.5C61.1021 71.5 54.1021 86.5 43.6021 81C39.6461 78.9279 40.5584 74.784 42.1809 72.2044C42.8142 71.1975 42.8504 69.7841 41.989 68.9638L34.9822 62.2908C34.0321 61.3859 32.4889 61.6263 31.9036 62.8006C28.4889 69.6524 24.6034 79.5704 22.1017 81C18.6017 83 2.10166 80 3.6017 72C4.58643 66.7483 9.22963 66.0754 12.6138 66.5555C13.7228 66.7128 14.8612 66.1174 15.1773 65.0428L16.489 60.583C16.8189 59.4613 16.1192 58.2999 15.0033 57.9509C9.84144 56.3366 2.14696 52.0576 1.10185 43C0.00821942 33.5218 7.96774 29.8301 13.1722 29.1239C14.023 29.0084 14.7582 28.4391 15.068 27.6383C18.5333 18.68 27.9761 15.5 35.6017 15.5Z" fill="#E7D4B5" stroke="#63553E" stroke-width="2"/>
<rect x="25.6021" y="29" width="3" height="5" rx="1.5" fill="#63553E"/>
<rect x="20.6021" y="29" width="3" height="5" rx="1.5" fill="#63553E"/>
<path d="M21.1021 40C21.1021 41.1461 20.3574 42.2594 18.9939 43.1115C17.6375 43.9593 15.7325 44.5 13.6021 44.5C11.4716 44.5 9.56662 43.9593 8.2102 43.1115C6.84672 42.2594 6.10205 41.1461 6.10205 40C6.10205 38.8539 6.84672 37.7406 8.2102 36.8885C9.56662 36.0407 11.4716 35.5 13.6021 35.5C15.7325 35.5 17.6375 36.0407 18.9939 36.8885C20.3574 37.7406 21.1021 38.8539 21.1021 40Z" fill="#7F7057" stroke="#63553E"/>
<ellipse cx="10.1021" cy="38.5" rx="2.5" ry="1.5" fill="white"/>
<path d="M22.6021 49.5L41.6021 40.5C42.6021 40 43.0021 39.2 42.6021 38" stroke="#63553E" stroke-linecap="round"/>
<path d="M37.1022 49.5C33.1022 50.3 32.7687 47 33.1021 45L36.3521 43.25L39.6021 41.5C40.4355 43.8333 41.1022 48.7 37.1022 49.5Z" fill="#FF8080"/>
<path d="M36.3521 43.25L39.6021 41.5C40.4355 43.8333 41.1022 48.7 37.1022 49.5C33.1022 50.3 32.7687 47 33.1021 45L36.3521 43.25ZM36.3521 43.25L36.6021 47" stroke="#63553E" stroke-linecap="round"/>
<path d="M21.1021 66C16.6021 65.3571 15.6021 58 15.6021 58C35.6021 58 48.9354 47.6667 52.1021 42.5C47.1021 58.5 25.6021 66.6429 21.1021 66Z" fill="#B6C7AA" stroke="#63553E" stroke-width="1.5" stroke-linecap="round" stroke-linejoin="round"/>
</svg>
